<svg width="200" height="150" viewBox="0 0 200 150" fill="none" xmlns="http://www.w3.org/2000/svg">
    <g clip-path="url(#clip0_108_5)">
        <path fill-rule="evenodd" clip-rule="evenodd" d="M0 0H200V150H0V0Z" fill="#229E45"/>
        <path fill-rule="evenodd" clip-rule="evenodd" d="M100.437 136.25L194.656 75.0938L99.875 13.75L5.34375 75.2187L100.437 136.25Z" fill="#F8E509"/>
        <path fill-rule="evenodd" clip-rule="evenodd" d="M141.5 75C141.5 96.9688 123.656 114.781 101.625 114.781C93.7522 114.769 86.0598 112.423 79.5202 108.039C72.9806 103.656 67.8875 97.4315 64.8847 90.1538C61.8819 82.8762 61.1042 74.8716 62.6499 67.152C64.1957 59.4324 67.9955 52.3444 73.569 46.784C79.1425 41.2236 86.2394 37.4405 93.9626 35.9129C101.686 34.3853 109.689 35.1819 116.959 38.2018C124.23 41.2217 130.442 46.3295 134.81 52.8794C139.178 59.4292 141.506 67.1272 141.5 75Z" fill="#2B49A3"/>
        <path fill-rule="evenodd" clip-rule="evenodd" d="M88.5312 98.8437L87.2812 98.125L86.0312 98.75L86.3125 97.3438L85.3125 96.2813L86.7187 96.125L87.4063 94.875L88 96.1875L89.375 96.4375L88.3438 97.375M115.219 105.594L114 104.875L112.75 105.5L113 104.094L112.031 103.062L113.437 102.906L114.094 101.625L114.719 102.938L116.094 103.188L115.031 104.156M103.719 94.7812L102.656 94.1562L101.562 94.7188L101.812 93.5L100.937 92.5937L102.187 92.4688L102.75 91.3437L103.25 92.5L104.469 92.7188L103.531 93.5625M130.719 90.9062L129.656 90.2812L128.562 90.8438L128.812 89.625L127.969 88.75L129.187 88.625L129.75 87.5313L130.25 88.6563L131.437 88.875L130.531 89.6875M103.25 82.8125L102 82.125L100.75 82.75L101 81.3125L100.031 80.2812L101.438 80.125L102.094 78.8438L102.719 80.1563L104.094 80.4062L103.031 81.4063M70.3438 70.4688L69.0938 69.7813L67.8438 70.4063L68.1563 68.9688L67.125 67.9375L68.5625 67.7812L69.1875 66.5L69.8125 67.8125L71.1875 68.0625L70.1563 69.0312M74.3125 86.9063L73.0625 86.1875L71.8125 86.8125L72.0938 85.4062L71.0938 84.375L72.5 84.1875L73.1563 82.9375L73.7813 84.25L75.1563 84.5L74.125 85.4688M115.375 64.4375L114.25 63.8125L113.125 64.375L113.375 63.125L112.5 62.1875L113.75 62.0313L114.344 60.9062L114.875 62.0938L116.125 62.3125L115.187 63.1563M113.094 75.125L112.25 74.625L111.344 75.0625L111.531 74.0625L110.844 73.3438L111.844 73.2188L112.312 72.3438L112.719 73.2813L113.656 73.4375L112.969 74.125M68.5313 89.875L67.6875 89.4063L66.8437 89.8125L67.0313 88.875L66.375 88.1875L67.3125 88.0625L67.75 87.2188L68.1563 88.0938L69.0938 88.2813L68.375 88.9063M130.937 93.6875L130.25 93.3438L129.562 93.6563L129.719 92.9375L129.187 92.4375L129.937 92.3438L130.312 91.7188L130.625 92.3438L131.406 92.5L130.812 92.9688" fill="#FFFFEF"/>
        <path fill-rule="evenodd" clip-rule="evenodd" d="M68.5313 89.875L67.6875 89.4062L66.8438 89.8125L67.0313 88.875L66.375 88.1875L67.3125 88.0625L67.75 87.2188L68.1563 88.0937L69.0938 88.2812L68.375 88.9062" fill="#FFFFEF"/>
        <path fill-rule="evenodd" clip-rule="evenodd" d="M68.5313 89.875L67.6875 89.4063L66.8437 89.8125L67.0313 88.875L66.375 88.1875L67.3125 88.0625L67.75 87.2188L68.1563 88.0938L69.0938 88.2813L68.375 88.9063M81.5938 89.8438L80.7813 89.4063L79.9375 89.8125L80.125 88.875L79.4688 88.1875L80.4062 88.0625L80.8438 87.2188L81.25 88.0938L82.1875 88.25L81.4688 88.9063M79.9687 94.2188L79.1563 93.75L78.3125 94.1875L78.5 93.25L77.8438 92.5313L78.7813 92.4063L79.2188 91.5625L79.625 92.4375L80.5625 92.625L79.8438 93.25M107.156 86.3125L106.344 85.8125L105.469 86.25L105.656 85.3125L105.031 84.5938L105.969 84.5L106.406 83.6563L106.781 84.5313L107.719 84.6875L107.031 85.3438M99.1875 86.2813L98.3438 85.8125L97.5 86.25L97.6875 85.3125L97.0625 84.5938L98 84.5L98.4375 83.625L98.8125 84.5313L99.75 84.6875L99.0625 85.3438M77.5625 83.5312L77.0313 83.2187L76.5 83.4688L76.625 82.875L76.2187 82.4375L76.8125 82.375L77.0625 81.8438L77.3125 82.4063L77.9063 82.5L77.4687 82.9062M129.906 97.0938L129.094 96.625L128.25 97.0625L128.437 96.125L127.781 95.4062L128.719 95.2812L129.156 94.4375L129.562 95.3125L130.5 95.5L129.781 96.125M123.281 98L122.594 97.5625L121.875 97.9375L122.031 97.125L121.5 96.5625L122.281 96.4688L122.656 95.75L122.969 96.5L123.75 96.625L123.156 97.1875M126.406 97.9062L125.781 97.5313L125.125 97.8438L125.25 97.125L124.75 96.5938L125.469 96.5L125.812 95.875L126.125 96.5L126.844 96.6562L126.313 97.1562M135.406 90.0313L134.781 89.7188L134.156 90.0313L134.312 89.3125L133.812 88.7813L134.531 88.6875L134.844 88.0625L135.156 88.7188L135.812 88.8437L135.312 89.3438M123.188 102.406L122.406 101.969L121.562 102.344L121.75 101.469L121.125 100.844L122.062 100.75L122.469 99.9688L122.844 100.781L123.781 100.938L123.062 101.531M123.25 105.969L122.5 105.531L121.75 105.938L121.938 105.063L121.344 104.438L122.187 104.312L122.563 103.531L122.906 104.344L123.75 104.5L123.125 105.125M117.187 97.9062L116.594 97.5313L115.969 97.8438L116.094 97.1562L115.625 96.625L116.313 96.5625L116.625 95.9375L116.938 96.5625L117.625 96.6875L117.125 97.1875M111.562 97.9062L110.937 97.5313L110.312 97.8438L110.469 97.1562L109.969 96.625L110.688 96.5625L111 95.9375L111.313 96.5625L111.969 96.6875L111.469 97.1875M101.969 89.5L101.344 89.1562L100.719 89.4687L100.875 88.75L100.375 88.25L101.062 88.1563L101.375 87.5313L101.687 88.1563L102.375 88.3125L101.875 88.7813M103.031 106.594L102.531 106.313L101.969 106.594L102.094 105.969L101.687 105.531L102.281 105.469L102.563 104.937L102.812 105.5L103.406 105.594L102.969 106M88.5312 78.9375L87.2812 78.2188L86.0312 78.8438L86.3125 77.4375L85.3125 76.4063L86.7187 76.2188L87.4063 74.9688L88 76.2813L89.375 76.5312L88.3438 77.5" fill="#FFFFEF"/>
        <path fill-rule="evenodd" clip-rule="evenodd" d="M138.875 89.3125C139.649 87.3036 140.255 85.2341 140.687 83.125C119.5 64.5312 95.9062 55 66.0937 56.9688C65.0125 59.061 64.1234 61.247 63.4375 63.5C98.75 60.125 124.687 75.75 138.875 89.3125Z" fill="white"/>
        <path d="M129.375 78.875L130.094 79.2812C129.986 79.4935 129.953 79.7355 130 79.9687C130.073 80.1949 130.23 80.3848 130.437 80.5C130.656 80.6563 130.875 80.75 131.062 80.7187C131.25 80.7187 131.375 80.625 131.469 80.5C131.523 80.417 131.545 80.317 131.531 80.2188C131.506 80.1033 131.452 79.996 131.375 79.9062C131.312 79.8125 131.156 79.5937 130.906 79.3437C130.649 79.0785 130.457 78.7578 130.344 78.4062C130.266 78.1402 130.286 77.855 130.401 77.6026C130.515 77.3502 130.717 77.1474 130.969 77.0312C131.196 76.9364 131.447 76.9145 131.687 76.9688C131.981 77.0364 132.258 77.1641 132.5 77.3438C132.937 77.6562 133.219 77.9687 133.312 78.3437C133.356 78.5191 133.361 78.7017 133.329 78.8794C133.297 79.0572 133.227 79.226 133.125 79.375L132.375 78.9062C132.469 78.7187 132.5 78.5313 132.437 78.375C132.406 78.2188 132.281 78.0625 132.062 77.9375C131.902 77.8084 131.706 77.732 131.5 77.7187C131.443 77.7168 131.387 77.7304 131.338 77.7579C131.288 77.7854 131.247 77.8259 131.219 77.875C131.156 77.9687 131.156 78.0625 131.187 78.1875C131.219 78.3125 131.375 78.5625 131.687 78.875C132 79.1875 132.187 79.4687 132.312 79.6562C132.424 79.8611 132.475 80.0936 132.458 80.3262C132.441 80.5589 132.358 80.7819 132.219 80.9688C132.073 81.1812 131.866 81.3446 131.625 81.4375C131.391 81.5454 131.129 81.5781 130.875 81.5312C130.594 81.4687 130.312 81.3438 130 81.125C129.531 80.8125 129.25 80.4687 129.156 80.0937C129.054 79.6685 129.122 79.2204 129.344 78.8438L129.375 78.875ZM125.75 76.5L126.531 76.9063C126.434 77.1221 126.412 77.364 126.469 77.5938C126.549 77.8082 126.704 77.9861 126.906 78.0937C127.156 78.25 127.344 78.3125 127.531 78.2812C127.719 78.2812 127.844 78.1875 127.937 78.0312C127.985 77.9569 128.007 77.8692 128 77.7812C128 77.6875 127.937 77.5625 127.844 77.4687C127.684 77.2755 127.517 77.0879 127.344 76.9063C127 76.5625 126.781 76.2813 126.719 76.0313C126.668 75.8704 126.652 75.7004 126.674 75.533C126.696 75.3657 126.753 75.2051 126.844 75.0625C126.963 74.8697 127.137 74.7172 127.344 74.625C127.558 74.526 127.798 74.4934 128.031 74.5312C128.32 74.5799 128.597 74.6862 128.844 74.8438C129.312 75.1562 129.594 75.4688 129.687 75.8125C129.744 75.9882 129.763 76.174 129.741 76.3574C129.72 76.5408 129.659 76.7174 129.562 76.875L128.781 76.4375C128.875 76.2188 128.906 76.0625 128.844 75.9062C128.781 75.75 128.656 75.5938 128.437 75.4688C128.265 75.3447 128.057 75.279 127.844 75.2812C127.792 75.2847 127.743 75.3008 127.699 75.328C127.656 75.3553 127.619 75.3929 127.594 75.4375C127.531 75.5312 127.531 75.625 127.562 75.75C127.594 75.875 127.781 76.125 128.094 76.4375C128.406 76.75 128.625 77 128.719 77.1875C128.844 77.3835 128.911 77.6112 128.911 77.8438C128.911 78.0763 128.844 78.304 128.719 78.5C128.584 78.718 128.389 78.8918 128.156 79C127.922 79.1079 127.66 79.1406 127.406 79.0938C127.085 79.0394 126.777 78.9226 126.5 78.75C126.096 78.5347 125.785 78.179 125.625 77.75C125.504 77.3328 125.549 76.8851 125.75 76.5ZM121.312 75.3125L123.594 71.5625L126.344 73.2812L125.969 73.9062L123.969 72.6562L123.469 73.5L125.344 74.6562L124.937 75.2812L123.062 74.125L122.437 75.1562L124.531 76.4062L124.156 77.0312L121.344 75.3125H121.312ZM114.844 70L115.187 69.375L116.875 70.2187L116.094 71.7812C115.844 71.8437 115.531 71.875 115.156 71.8437C114.796 71.8041 114.447 71.6981 114.125 71.5312C113.747 71.347 113.424 71.0669 113.188 70.7188C112.973 70.3953 112.863 70.0131 112.875 69.625C112.891 69.221 112.998 68.8258 113.188 68.4688C113.375 68.0929 113.655 67.7705 114 67.5313C114.33 67.3028 114.723 67.1827 115.125 67.1875C115.437 67.1875 115.75 67.2813 116.125 67.5C116.625 67.7187 116.938 68.0313 117.094 68.375C117.256 68.7162 117.29 69.1048 117.187 69.4688L116.344 69.2188C116.395 69.0094 116.373 68.7887 116.281 68.5938C116.187 68.4062 116.031 68.2813 115.781 68.1563C115.636 68.0731 115.474 68.0217 115.307 68.0056C115.14 67.9894 114.971 68.0088 114.812 68.0625C114.5 68.1563 114.219 68.4375 114 68.875C113.781 69.3125 113.687 69.7187 113.781 70.0625C113.824 70.2255 113.903 70.3771 114.011 70.5067C114.119 70.6363 114.254 70.7406 114.406 70.8125C114.562 70.9063 114.75 70.9688 114.937 70.9688C115.124 70.997 115.314 70.997 115.5 70.9688L115.75 70.4688L114.844 70ZM86.6562 63.0312L87.2812 58.6562L88.5937 58.875L88.9375 61.9375L90.1562 59.125L91.4688 59.3125L90.8438 63.625L90 63.5L90.5312 60.0938L89.1562 63.375L88.3125 63.25L87.9687 59.7188L87.4687 63.1563L86.6562 63.0312ZM82.25 62.5L82.6562 58.125L85.875 58.4375L85.8125 59.1875L83.4687 58.9687L83.375 59.9062L85.5625 60.125L85.4687 60.875L83.2812 60.6563L83.1875 61.8437L85.625 62.0625L85.5625 62.8125L82.25 62.5Z" fill="#309E3A"/>
        <path d="M67.6562 59.7812C67.6562 59.3125 67.75 58.9687 67.875 58.6562C67.9845 58.434 68.1327 58.233 68.3125 58.0625C68.4728 57.9008 68.6641 57.7733 68.875 57.6875C69.1875 57.5937 69.5 57.5312 69.8125 57.5312C70.4687 57.5312 70.9687 57.7812 71.375 58.1562C71.5684 58.3951 71.7122 58.6702 71.798 58.9653C71.8839 59.2604 71.91 59.5697 71.875 59.875C71.875 60.5625 71.6562 61.125 71.25 61.5312C71.0412 61.7242 70.7943 61.8712 70.5251 61.9627C70.256 62.0542 69.9706 62.0882 69.6875 62.0625C69.4082 62.0653 69.1312 62.0114 68.8733 61.904C68.6155 61.7965 68.3822 61.6378 68.1875 61.4375C67.7986 60.9772 67.6076 60.3818 67.6562 59.7812Z" fill="#309E3A"/>
        <path d="M68.5625 59.7812C68.5625 60.25 68.6563 60.625 68.875 60.9062C69.0937 61.1562 69.375 61.3125 69.75 61.3125C69.9122 61.3239 70.075 61.2989 70.2263 61.2394C70.3777 61.18 70.5139 61.0875 70.625 60.9688C70.8438 60.7188 70.9375 60.3437 70.9688 59.8125C70.9688 59.3125 70.9063 58.9375 70.6563 58.6875C70.5545 58.5615 70.426 58.4598 70.2801 58.3895C70.1341 58.3193 69.9744 58.2823 69.8125 58.2812C69.6481 58.276 69.4846 58.3068 69.3334 58.3716C69.1822 58.4364 69.0471 58.5336 68.9375 58.6562C68.6875 58.9062 68.5938 59.2812 68.5625 59.7812Z" fill="#F7FFFF"/>
        <path d="M72.8125 62.0312L72.875 57.6562H74.75C75.2187 57.6562 75.5312 57.7187 75.75 57.8125C75.9687 57.875 76.125 58.0313 76.25 58.2188C76.375 58.4063 76.4375 58.6563 76.4375 58.9375C76.4399 59.2381 76.3283 59.5285 76.125 59.75C75.894 59.9664 75.5967 60.0985 75.2812 60.125L75.75 60.5C75.875 60.625 76.0312 60.875 76.2187 61.2187L76.75 62.0937H75.6875L75.0625 61.0938L74.625 60.4688C74.5492 60.3828 74.4523 60.3181 74.3437 60.2812C74.2016 60.2398 74.0543 60.2187 73.9062 60.2187H73.7187V62.0312H72.8125Z" fill="#309E3A"/>
        <path d="M73.75 59.5313H74.375C74.8125 59.5313 75.0938 59.5313 75.1875 59.4688C75.2813 59.4688 75.375 59.375 75.4375 59.3125C75.5 59.25 75.5312 59.0938 75.5312 59C75.5312 58.8125 75.5 58.6875 75.4063 58.625C75.3438 58.5313 75.2188 58.4688 75.0938 58.4375H74.4688L73.75 58.4062V59.5V59.5313Z" fill="white"/>
        <path d="M77.8125 57.875L79.4375 57.9688C79.7812 57.9688 80.0625 58 80.25 58.0625C80.4932 58.1507 80.7088 58.3017 80.875 58.5C81.055 58.7185 81.1832 58.9749 81.25 59.25C81.3437 59.5313 81.375 59.875 81.3437 60.2812C81.3435 60.6002 81.2907 60.9169 81.1875 61.2187C81.0625 61.5312 80.875 61.7813 80.6563 61.9688C80.4742 62.1188 80.2605 62.2256 80.0313 62.2813C79.8438 62.3438 79.5625 62.3438 79.25 62.3438L77.5938 62.25L77.8125 57.875Z" fill="#309E3A"/>
        <path d="M78.6562 58.6562L78.5 61.5625H79.6875C79.8438 61.5625 79.9688 61.5 80.0625 61.4063C80.1563 61.3125 80.25 61.1875 80.3125 61C80.375 60.8125 80.4375 60.5313 80.4375 60.1875L80.4062 59.4063C80.3616 59.2415 80.2756 59.0909 80.1563 58.9688C80.0525 58.8644 79.9232 58.789 79.7813 58.75C79.5449 58.6974 79.3044 58.666 79.0625 58.6562H78.6562Z" fill="white"/>
        <path d="M99.25 65.6875L100.281 61.4375L101.656 61.75L102.656 62.0625C102.875 62.1875 103.062 62.375 103.156 62.6562C103.281 62.9062 103.281 63.1875 103.219 63.5312C103.156 63.7812 103.062 64 102.906 64.1562C102.792 64.2935 102.648 64.4038 102.486 64.4794C102.324 64.555 102.148 64.5941 101.969 64.5937C101.75 64.5937 101.437 64.5312 101.031 64.4375L100.5 64.2812L100.125 65.9062L99.25 65.6875Z" fill="#309E3A"/>
        <path d="M100.937 62.375L100.688 63.5625L101.156 63.6875C101.469 63.75 101.719 63.8125 101.844 63.7812C101.965 63.7644 102.079 63.7102 102.168 63.6263C102.258 63.5424 102.319 63.4327 102.344 63.3125C102.344 63.1562 102.344 63.0312 102.281 62.9062C102.213 62.7792 102.102 62.6798 101.969 62.625L101.375 62.4687L100.969 62.375H100.937Z" fill="white"/>
        <path d="M103.312 66.9063L104.781 62.7812L106.5 63.4062C106.969 63.5625 107.25 63.7188 107.437 63.8438C107.594 64 107.719 64.1563 107.75 64.4063C107.781 64.6563 107.812 64.875 107.75 65.125C107.625 65.4375 107.437 65.6563 107.187 65.8125C106.937 65.9375 106.625 65.9688 106.25 65.9062C106.375 66.0625 106.5 66.2188 106.562 66.4063L106.812 67.25L107 68.2188L106.031 67.875L105.719 66.75C105.662 66.4956 105.589 66.2451 105.5 66C105.459 65.9028 105.394 65.817 105.312 65.75C105.25 65.6562 105.125 65.5938 104.906 65.5313L104.75 65.4688L104.125 67.2188L103.312 66.9063Z" fill="#309E3A"/>
        <path d="M105 64.8125L105.594 65.0312C106 65.1875 106.25 65.25 106.375 65.25C106.469 65.25 106.562 65.25 106.656 65.1562C106.75 65.0937 106.812 65 106.844 64.875C106.906 64.75 106.906 64.625 106.844 64.5C106.798 64.3789 106.709 64.2789 106.594 64.2187L105.969 64L105.344 63.7812L104.969 64.8125H105Z" fill="white"/>
        <path d="M108.438 66.75C108.545 66.3841 108.726 66.0439 108.969 65.75C109.127 65.5615 109.317 65.4027 109.531 65.2812C109.725 65.1718 109.937 65.0978 110.156 65.0625C110.469 65.0625 110.781 65.0625 111.125 65.1875C111.404 65.2566 111.666 65.3843 111.892 65.5621C112.118 65.7399 112.304 65.9637 112.438 66.2187C112.688 66.7187 112.688 67.3125 112.5 68C112.345 68.5906 111.963 69.0961 111.438 69.4063C110.969 69.6875 110.406 69.7188 109.813 69.5313C109.534 69.4603 109.273 69.3319 109.047 69.1543C108.821 68.9767 108.635 68.7539 108.5 68.5C108.375 68.2268 108.305 67.9316 108.294 67.6312C108.283 67.3309 108.332 67.0314 108.438 66.75Z" fill="#309E3A"/>
        <path d="M109.313 67C109.188 67.4687 109.156 67.875 109.313 68.1875C109.469 68.5 109.688 68.6875 110.031 68.8125C110.344 68.9062 110.656 68.875 110.969 68.6875C111.281 68.5312 111.469 68.1875 111.625 67.6875C111.781 67.2187 111.781 66.8437 111.625 66.5312C111.563 66.383 111.47 66.2501 111.351 66.1421C111.232 66.0341 111.091 65.9536 110.938 65.9062C110.784 65.8532 110.62 65.8341 110.458 65.8502C110.297 65.8664 110.14 65.9175 110 66C109.688 66.1875 109.469 66.5 109.313 67Z" fill="white"/>
        <path d="M116.969 72.8438L118.969 68.9688L120.625 69.8125C120.937 69.9623 121.222 70.163 121.469 70.4063C121.625 70.5625 121.719 70.75 121.719 71C121.719 71.25 121.719 71.4687 121.594 71.6875C121.474 71.9685 121.25 72.1923 120.969 72.3125C120.656 72.375 120.344 72.375 120 72.25C120.125 72.4375 120.187 72.625 120.25 72.7812C120.313 72.9687 120.344 73.25 120.375 73.6562L120.438 74.6562L119.5 74.1875L119.375 73.0312C119.36 72.7691 119.329 72.5082 119.281 72.25C119.26 72.1331 119.206 72.0247 119.125 71.9375L118.75 71.7188L118.594 71.625L117.75 73.25L116.969 72.8438Z" fill="#309E3A"/>
        <path d="M118.906 71L119.5 71.3125C119.875 71.5 120.125 71.625 120.219 71.625C120.313 71.625 120.438 71.625 120.531 71.5625C120.625 71.5312 120.687 71.4375 120.75 71.3125C120.812 71.1875 120.844 71.0625 120.813 70.9375C120.774 70.8131 120.697 70.7038 120.594 70.625C120.411 70.5127 120.223 70.4085 120.031 70.3125L119.406 70L118.906 71Z" fill="white"/>
        <path d="M133.156 80.8438C133.358 80.5224 133.624 80.2459 133.937 80.0312C134.148 79.8967 134.381 79.8014 134.625 79.75C134.852 79.7037 135.086 79.7037 135.312 79.75C135.625 79.8125 135.906 79.9375 136.187 80.125C136.431 80.2765 136.64 80.477 136.801 80.7137C136.962 80.9505 137.073 81.2183 137.125 81.5C137.219 82.0312 137.062 82.625 136.687 83.2187C136.374 83.7352 135.868 84.106 135.281 84.25C135.001 84.3104 134.712 84.3111 134.432 84.2518C134.152 84.1926 133.888 84.0748 133.656 83.9062C133.413 83.7548 133.204 83.5542 133.043 83.3175C132.881 83.0808 132.771 82.813 132.719 82.5312C132.625 81.9687 132.781 81.4063 133.156 80.8438Z" fill="#309E3A"/>
        <path d="M133.937 81.3437C133.625 81.75 133.531 82.125 133.594 82.4687C133.617 82.627 133.673 82.7786 133.759 82.9133C133.846 83.048 133.96 83.1628 134.094 83.25C134.406 83.4687 134.719 83.5312 135.031 83.4375C135.344 83.3437 135.656 83.125 135.937 82.6875C136.219 82.25 136.344 81.875 136.281 81.5625C136.25 81.25 136.062 80.9687 135.781 80.75C135.5 80.5312 135.156 80.5 134.844 80.5937C134.531 80.6562 134.219 80.9062 133.906 81.3437H133.937Z" fill="white"/>
        <path d="M94.3125 63.9063L95.0313 60.8438L97.2812 61.375L97.1875 61.875L95.5313 61.5L95.375 62.1875L96.9063 62.5313L96.7813 63.0625L95.25 62.6875L95.0625 63.5313L96.7813 63.9375L96.6562 64.4375L94.3125 63.9063Z" fill="#309E3A"/>
    </g>
    <defs>
        <clipPath id="clip0_108_5">
            <rect width="200" height="150" fill="white"/>
        </clipPath>
    </defs>
</svg>
