<svg width="150" height="150" viewBox="0 0 150 150" fill="none" xmlns="http://www.w3.org/2000/svg">
    <path d="M0 20C0 8.9543 8.95431 0 20 0H130C141.046 0 150 8.95431 150 20V130C150 141.046 141.046 150 130 150H20C8.9543 150 0 141.046 0 130V20Z"
          fill="#005691"/>
    <path d="M80.1762 92.885L66.5237 79.08L66.685 78.915C75.7911 68.5591 82.5944 56.3059 86.6262 43H102.375V32H64.75V21H54V32H16.375V43H76.4138C72.8125 53.56 67.115 63.625 59.375 72.425C54.3762 66.76 50.2375 60.545 46.9588 54H36.2088C40.1325 62.965 45.5075 71.435 52.2263 79.08L24.8675 106.69L32.5 114.5L59.375 87L76.0912 104.105L80.1762 92.885ZM110.438 65H99.6875L75.5 131H86.25L92.27 114.5H117.801L123.875 131H134.625L110.438 65ZM96.355 103.5L105.062 79.685L113.77 103.5H96.355V103.5Z"
          fill="#E8F1F5"/>
</svg>
