<svg width="150" height="150" viewBox="0 0 150 150" fill="none" xmlns="http://www.w3.org/2000/svg">
    <path d="M0 20C0 8.9543 8.95431 0 20 0H130C141.046 0 150 8.95431 150 20V130C150 141.046 141.046 150 130 150H20C8.9543 150 0 141.046 0 130V20Z" fill="#EB455F"/>
    <path d="M52.1268 138.448C50.3561 138.448 48.7134 138.171 47.1988 137.616C45.7054 137.04 44.4041 136.229 43.2948 135.184C42.2068 134.139 41.3534 132.912 40.7348 131.504C40.1161 130.075 39.8068 128.507 39.8068 126.8C39.8068 125.093 40.1161 123.536 40.7348 122.128C41.3534 120.699 42.2068 119.461 43.2948 118.416C44.4041 117.371 45.7054 116.571 47.1988 116.016C48.7134 115.44 50.3561 115.152 52.1268 115.152C54.1961 115.152 56.0414 115.515 57.6628 116.24C59.3054 116.965 60.6708 118.011 61.7588 119.376L57.7268 123.024C57.0014 122.171 56.2014 121.52 55.3268 121.072C54.4734 120.624 53.5134 120.4 52.4468 120.4C51.5294 120.4 50.6868 120.549 49.9188 120.848C49.1508 121.147 48.4894 121.584 47.9348 122.16C47.4014 122.715 46.9748 123.387 46.6548 124.176C46.3561 124.965 46.2068 125.84 46.2068 126.8C46.2068 127.76 46.3561 128.635 46.6548 129.424C46.9748 130.213 47.4014 130.896 47.9348 131.472C48.4894 132.027 49.1508 132.453 49.9188 132.752C50.6868 133.051 51.5294 133.2 52.4468 133.2C53.5134 133.2 54.4734 132.976 55.3268 132.528C56.2014 132.08 57.0014 131.429 57.7268 130.576L61.7588 134.224C60.6708 135.568 59.3054 136.613 57.6628 137.36C56.0414 138.085 54.1961 138.448 52.1268 138.448ZM71.4013 138L61.8332 115.6H68.6813L76.7453 134.992H72.7133L80.9693 115.6H87.2413L77.6413 138H71.4013ZM95.9013 138L86.3332 115.6H93.1813L101.245 134.992H97.2133L105.469 115.6H111.741L102.141 138H95.9013Z" fill="#E8F1F5"/>
    <path d="M47.9118 96.3699C40.4906 96.3699 34.1509 93.6502 28.8925 88.2107C23.6308 82.7711 21 76.1228 21 68.2657C21 61.5311 22.9164 55.5303 26.7493 50.2635C30.5822 44.9967 35.5976 41.6293 41.7955 40.1615C43.1818 33.9449 46.6477 28.0305 52.1932 22.4183C57.7386 16.8061 63.6511 14 69.9305 14C72.6217 14 74.9263 15.0137 76.8444 17.041C78.7592 19.0717 79.7166 21.5117 79.7166 24.361V55.703L84.1203 51.1701C85.0174 50.2203 86.1395 49.7454 87.4867 49.7454C88.8307 49.7454 89.992 50.2635 90.9706 51.2996C91.8676 52.2494 92.3162 53.4581 92.3162 54.9259C92.3162 56.3938 91.8676 57.6025 90.9706 58.5523L78.2487 72.0216C77.7594 72.5396 77.2293 72.9057 76.6584 73.1199C76.0876 73.3374 75.4759 73.4462 74.8235 73.4462C74.1711 73.4462 73.5595 73.3374 72.9886 73.1199C72.4178 72.9057 71.8877 72.5396 71.3984 72.0216L58.6765 58.5523C57.7794 57.6025 57.3113 56.4145 57.2722 54.9881C57.2298 53.5652 57.6979 52.3357 58.6765 51.2996C59.5735 50.3498 60.694 49.8525 62.038 49.8076C63.3852 49.7662 64.5481 50.2203 65.5267 51.1701L69.9305 55.703V24.361C63.7326 25.5698 58.9211 28.742 55.496 33.8776C52.0709 39.0166 50.3583 44.3059 50.3583 49.7454H47.9118C43.1818 49.7454 39.1451 51.5154 35.8015 55.0555C32.4579 58.5955 30.7861 62.8694 30.7861 67.8772C30.7861 72.885 32.4579 77.1589 35.8015 80.6989C39.1451 84.2389 43.1818 86.0089 47.9118 86.0089H106.628C110.053 86.0089 112.949 84.757 115.313 82.2531C117.678 79.7492 118.861 76.684 118.861 73.0577C118.861 69.4313 117.678 66.3662 115.313 63.8623C112.949 61.3584 110.053 60.1064 106.628 60.1064H99.2888V49.7454C99.2888 45.601 98.3917 41.7364 96.5976 38.1515C94.8035 34.57 92.4385 31.5274 89.5027 29.0234V16.9788C95.5374 20.0007 100.308 24.4698 103.815 30.3859C107.322 36.2986 109.075 42.7518 109.075 49.7454C114.702 50.4362 119.371 53.004 123.084 57.4489C126.793 61.8972 128.647 67.1001 128.647 73.0577C128.647 79.5333 126.507 85.0385 122.227 89.5731C117.944 94.1043 112.745 96.3699 106.628 96.3699H47.9118Z" fill="#E8F1F5"/>
</svg>
