<svg width="150" height="150" viewBox="0 0 150 150" fill="none" xmlns="http://www.w3.org/2000/svg">
    <path d="M0 32C0 20.7989 0 15.1984 2.17987 10.9202C4.09734 7.15695 7.15695 4.09734 10.9202 2.17987C15.1984 0 20.799 0 32 0H118C129.201 0 134.802 0 139.08 2.17987C142.843 4.09734 145.903 7.15695 147.82 10.9202C150 15.1984 150 20.799 150 32V118C150 129.201 150 134.802 147.82 139.08C145.903 142.843 142.843 145.903 139.08 147.82C134.802 150 129.201 150 118 150H32C20.7989 150 15.1984 150 10.9202 147.82C7.15695 145.903 4.09734 142.843 2.17987 139.08C0 134.802 0 129.201 0 118V32Z"
          fill="#256D85"/>
    <path d="M34.3 65.9C34.3 70.3 34.2333 74.5333 34.1 78.6C33.9667 82.6667 33.7667 86.1 33.5 88.9C33.4333 89.7 33.1667 90.9333 32.7 92.6C32.2333 94.2 31.6333 95.8333 30.9 97.5C30.2333 99.1 29.4333 100.5 28.5 101.7C27.6333 102.9 26.7333 103.5 25.8 103.5C25.3333 103.5 24.8 103.333 24.2 103C23.6667 102.667 23.4 102.133 23.4 101.4C23.4 101.267 23.5 100.867 23.7 100.2C23.9667 99.4667 24.1667 99 24.3 98.8C24.7 96.2667 24.9667 92.9 25.1 88.7C25.3 84.5 25.4 80 25.4 75.2C25.4667 70.3333 25.4667 65.4 25.4 60.4C25.4 55.3333 25.4 50.6667 25.4 46.4C25.4 45.9333 25.1333 45.6 24.6 45.4C24.0667 45.1333 23.4333 44.9 22.7 44.7C22.0333 44.5 21.3 44.3 20.5 44.1C19.7667 43.9 19.2 43.6333 18.8 43.3C18.6 42.3667 18.5333 41.5 18.6 40.7C18.7333 39.9 19.1333 39.3333 19.8 39C20.7333 38.5333 21.8333 38.2 23.1 38C24.4333 37.7333 25.6333 37.6333 26.7 37.7C27.9667 37.7667 29.2333 38 30.5 38.4C31.7667 38.8 32.9 39.5667 33.9 40.7C34.3667 41.3 35 42.3 35.8 43.7C36.6667 45.0333 37.6 46.6 38.6 48.4C39.6667 50.1333 40.7333 51.9333 41.8 53.8C42.9333 55.6667 44 57.3667 45 58.9C46 60.4333 46.9 61.7 47.7 62.7C48.5 63.7 49.1 64.2 49.5 64.2C50.0333 64.2 50.8667 63.5333 52 62.2C53.2 60.8667 54.4667 59.2667 55.8 57.4C57.2 55.5333 58.5667 53.6 59.9 51.6C61.3 49.6 62.4667 47.9333 63.4 46.6C64.2 45.6 64.8667 44.5667 65.4 43.5C65.9333 42.3667 66.4667 41.3333 67 40.4C67.6 39.4 68.2667 38.6 69 38C69.8 37.4 70.8333 37.1 72.1 37.1C73.1 37.1 73.8667 37.4667 74.4 38.2C74.9333 38.9333 75.3 39.7333 75.5 40.6C76.2333 43.6 76.5333 46.8333 76.4 50.3C76.3333 53.7667 76.3 57.5 76.3 61.5C76.3 63.7 76.2667 65.5667 76.2 67.1C76.2 68.6333 76.1667 70.1667 76.1 71.7C76.1 73.2333 76.0667 74.9667 76 76.9C75.9333 78.7667 75.8667 81.1667 75.8 84.1C75.7333 85.5 75.6667 87.1 75.6 88.9C75.5333 90.7 75.3667 92.5333 75.1 94.4C74.9 96.2 74.5333 97.9333 74 99.6C73.5333 101.267 72.8333 102.7 71.9 103.9C71.5667 104.3 71.1667 104.5 70.7 104.5C69.9667 104.5 69.3667 103.9 68.9 102.7C68.4333 101.5 68.0667 100.133 67.8 98.6C67.6 97.0667 67.4333 95.6 67.3 94.2C67.2333 92.8 67.2 91.8667 67.2 91.4C66.8 85.3333 66.7333 79.2333 67 73.1C67.2667 66.9667 67.2 60.9 66.8 54.9C65.7333 56.9 64.4 59.0667 62.8 61.4C61.2 63.6667 59.5667 65.8 57.9 67.8C56.2333 69.8 54.6 71.4667 53 72.8C51.4 74.0667 50.0667 74.7 49 74.7C47.8 74.7 46.6333 74.3 45.5 73.5C44.3667 72.7 43.3 71.7333 42.3 70.6C41.3667 69.4667 40.5333 68.3 39.8 67.1C39.0667 65.8333 38.4667 64.7667 38 63.9C37.4667 62.9667 36.8333 62 36.1 61C35.3667 59.9333 34.7667 58.8667 34.3 57.8V65.9Z"
          fill="#DFF6FF"/>
    <path d="M89.7 71.6C89.3 71.3333 88.8333 71 88.3 70.6C87.7667 70.2 87.2 69.7667 86.6 69.3C86.0667 68.7667 85.6 68.2667 85.2 67.8C84.8 67.2667 84.5667 66.7667 84.5 66.3C84.3667 65.7667 84.3667 65.0667 84.5 64.2C84.6333 63.2667 85 62.8 85.6 62.8C85.9333 62.8 86.3 62.8667 86.7 63C87.1667 63.1333 87.5667 63.2667 87.9 63.4C88.7 63.6667 89.5333 64.0667 90.4 64.6C91.3333 65.0667 92.2 65.5667 93 66.1C94.0667 66.9667 95 68.4 95.8 70.4C98.2 77.1333 100.733 84 103.4 91C106.133 98 109.067 105.7 112.2 114.1C112.8 115.567 113.233 117.2 113.5 119C113.767 120.8 113.867 122.5 113.8 124.1C113.8 125.633 113.6 126.933 113.2 128C112.867 129.067 112.367 129.6 111.7 129.6C111.3 129.6 110.8 129.2 110.2 128.4C109.6 127.6 109 126.667 108.4 125.6C107.867 124.533 107.367 123.5 106.9 122.5C106.433 121.433 106.1 120.667 105.9 120.2L99.4 104.5C97.5333 105.1 95.2333 105.667 92.5 106.2C89.7667 106.667 86.5 106.833 82.7 106.7C82.5 107.633 82.0667 109.1 81.4 111.1C80.8 113.033 80.1 115.067 79.3 117.2C78.5667 119.267 77.8333 121.233 77.1 123.1C76.3667 124.9 75.7667 126.1 75.3 126.7C74.7667 127.367 74.1333 127.933 73.4 128.4C72.6667 128.933 71.6333 129.267 70.3 129.4C70.0333 129.4 69.6 129.367 69 129.3C68.4667 129.3 67.9 129.233 67.3 129.1C66.7 129.033 66.1667 128.867 65.7 128.6C65.3 128.4 65.1 128.133 65.1 127.8C65.1 127.467 65.4333 127.133 66.1 126.8C66.7667 126.467 67.2333 126.167 67.5 125.9C68.1667 124.7 68.8667 123.233 69.6 121.5C70.3333 119.7 71.0333 117.867 71.7 116C72.4333 114.133 73.1 112.3 73.7 110.5C74.3 108.7 74.8 107.133 75.2 105.8C74.8667 105.8 74.4667 105.733 74 105.6C73.5333 105.467 73.0333 105.333 72.5 105.2C71.9667 105 71.4333 104.8 70.9 104.6C70.4333 104.333 70.0667 104.067 69.8 103.8C69.2667 103.267 68.8 102.633 68.4 101.9C68.0667 101.1 67.9667 100.4 68.1 99.8C68.1667 99.5333 68.5 99.4 69.1 99.4C69.7667 99.3333 70.3 99.2667 70.7 99.2H74.3C74.9667 99.2 75.5667 99.2333 76.1 99.3C76.6333 99.3 76.9667 99.3 77.1 99.3L83.4 79.3C83.8 77.7667 84.4 76.4 85.2 75.2C86.0667 74 86.9667 73.1667 87.9 72.7L89.7 71.6ZM90.6 78.5C90.2 79.8333 89.7333 81.4 89.2 83.2C88.7333 85 88.2333 86.8667 87.7 88.8C87.1667 90.7333 86.6333 92.6333 86.1 94.5C85.6333 96.3667 85.2 98.0333 84.8 99.5C86.7333 99.5667 88.8333 99.5 91.1 99.3C93.3667 99.0333 95.3667 98.6333 97.1 98.1C95.9667 94.5667 95 91.6333 94.2 89.3C93.4667 86.9 92.8333 85 92.3 83.6C91.8333 82.1333 91.4667 81.0667 91.2 80.4C91 79.6667 90.8333 79.1667 90.7 78.9L90.6 78.5Z"
          fill="#DFF6FF"/>
    <path d="M105.6 44.6C103.2 44.6667 100.767 44.7 98.3 44.7C95.8333 44.7 93.5333 44.6 91.4 44.4C91.0667 44.4 90.5333 44.2333 89.8 43.9C89.1333 43.5667 88.4333 43.1667 87.7 42.7C86.9667 42.2333 86.3 41.7333 85.7 41.2C85.1667 40.6 84.9 40.0333 84.9 39.5C84.9 39.1 85.0667 38.8 85.4 38.6C85.7333 38.3333 86.1333 38.1333 86.6 38C87.1333 37.8667 87.6667 37.7667 88.2 37.7C88.8 37.5667 89.3 37.5 89.7 37.5C90.7667 37.4333 92.5667 37.3333 95.1 37.2C97.7 37.0667 100.567 36.9333 103.7 36.8C106.833 36.6 110.033 36.4667 113.3 36.4C116.633 36.2667 119.567 36.1333 122.1 36C122.3 36 122.833 36 123.7 36C124.567 36 125.433 36.0667 126.3 36.2C127.233 36.3333 128.067 36.5333 128.8 36.8C129.6 37.0667 130 37.5 130 38.1C130 38.5 129.867 39 129.6 39.6C129.333 40.2 128.967 40.7667 128.5 41.3C128.033 41.8333 127.5 42.3333 126.9 42.8C126.3 43.2 125.7 43.4667 125.1 43.6C123.967 43.8 122.633 43.9667 121.1 44.1C119.567 44.1667 117.533 44.2 115 44.2V69.7C115 71.8333 114.833 74.4333 114.5 77.5C114.167 80.5667 113.633 83.6333 112.9 86.7C112.167 89.7 111.2 92.4667 110 95C108.867 97.5333 107.5 99.3 105.9 100.3C105.167 100.767 104.333 100.967 103.4 100.9C102.533 100.9 101.933 100.767 101.6 100.5C101.267 100.233 101.2 99.8333 101.4 99.3C101.6 98.7667 101.767 98.3333 101.9 98C102.7 95.9333 103.333 93.7 103.8 91.3C104.333 88.8333 104.733 86.3333 105 83.8C105.267 81.2667 105.433 78.7333 105.5 76.2C105.567 73.6 105.6 71.1333 105.6 68.8V44.6Z"
          fill="#DFF6FF"/>
</svg>

