<svg width="150" height="150" viewBox="0 0 150 150" fill="none" xmlns="http://www.w3.org/2000/svg">
    <g clip-path="url(#clip0_87_13)">
        <path d="M0 20C0 8.9543 8.95431 0 20 0H130C141.046 0 150 8.95431 150 20V130C150 141.046 141.046 150 130 150H20C8.9543 150 0 141.046 0 130V20Z"
              fill="#256D85"/>
        <path d="M125.725 36.8812C125.217 36.2076 124.675 35.5609 124.1 34.9437C124.678 33.4027 125.118 31.8131 125.413 30.1937C126.283 24.27 125.527 18.2209 123.225 12.6937C123.225 12.6937 116.225 10.5062 100.163 21.3187C93.3432 19.4359 86.2994 18.4897 79.225 18.5062C72.1303 18.4938 65.0664 19.4399 58.225 21.3187C42.1625 10.3812 35.1625 12.6937 35.1625 12.6937C32.888 18.1624 32.1323 24.1437 32.975 30.0062C33.2716 31.6929 33.7321 33.3466 34.35 34.9437C33.7875 35.5687 33.225 36.2562 32.725 36.8812C28.0612 42.7314 25.5855 50.0259 25.725 57.5062C25.7102 59.2803 25.7936 61.0539 25.975 62.8187C27.975 90.5062 46.4125 96.9437 63.975 98.9437C61.4893 101.255 59.8038 104.298 59.1625 107.631C58.5816 109.854 58.3082 112.146 58.35 114.444V122.631C51.3563 123.256 44.1813 122.237 41.9563 116C39.5678 110.03 35.6067 104.818 30.4938 100.919C30.1201 100.716 29.7646 100.482 29.4313 100.219C28.9823 99.0388 28.1868 98.0223 27.1494 97.3028C26.112 96.5833 24.8812 96.1945 23.6188 96.1875H23.5875C21.9353 96.1875 20.3503 96.8417 19.1791 98.007C18.0079 99.1724 17.3458 100.754 17.3375 102.406C17.3188 107.481 22.4 110.762 24.4813 111.875C26.9129 114.325 28.8689 117.205 30.25 120.369C32.525 126.762 39.1813 136.481 58.1625 135.219L58.175 135.831L58.2 137.506C58.2 139.164 58.8585 140.754 60.0306 141.926C61.2027 143.098 62.7924 143.756 64.45 143.756H93.9125C95.5701 143.756 97.1598 143.098 98.3319 141.926C99.504 140.754 100.163 139.164 100.163 137.506C100.163 137.506 100.213 117.756 100.213 114.444C100.254 112.146 99.9808 109.854 99.4 107.631L99.3875 107.594L99.4125 107.631C99.3563 107.412 99.275 107.237 99.2125 107.025C98.5161 103.928 96.9047 101.113 94.5875 98.9437L94.6625 99.075L94.5375 98.95C112.1 96.95 130.413 90.3875 132.413 62.825C132.594 61.0601 132.677 59.2866 132.663 57.5125C132.773 50.0469 130.325 42.7684 125.725 36.8875V36.8812Z"
              fill="#DFF6FF"/>
    </g>
    <defs>
        <clipPath id="clip0_87_13">
            <path d="M0 20C0 8.9543 8.95431 0 20 0H130C141.046 0 150 8.95431 150 20V130C150 141.046 141.046 150 130 150H20C8.9543 150 0 141.046 0 130V20Z"
                  fill="#DFF6FF"/>
        </clipPath>
    </defs>
</svg>
