<svg width="150" height="150" viewBox="0 0 150 150" fill="none" xmlns="http://www.w3.org/2000/svg">
    <g clip-path="url(#clip0_89_22)">
        <path d="M0 20C0 8.9543 8.95431 0 20 0H130C141.046 0 150 8.95431 150 20V130C150 141.046 141.046 150 130 150H20C8.9543 150 0 141.046 0 130V20Z" fill="#005691"/>
        <path d="M116.593 31.1185L108.593 37.3685L74.5302 62.681L40.4677 37.1185L32.4677 30.8685C30.5831 29.3094 28.2824 28.3375 25.8508 28.0732C23.4191 27.8089 20.9634 28.2638 18.7878 29.3815C16.6121 30.4993 14.8123 32.2308 13.6111 34.3615C12.4099 36.4922 11.8603 38.9285 12.0302 41.3685V113.806C12.0302 116.06 12.9257 118.222 14.5198 119.816C16.1139 121.41 18.2759 122.306 20.5302 122.306H40.4677V74.056L74.5302 99.6185L108.593 74.056V122.306H128.53C130.785 122.306 132.947 121.41 134.541 119.816C136.135 118.222 137.03 116.06 137.03 113.806V41.3685C137.148 38.9495 136.56 36.5485 135.338 34.4574C134.116 32.3663 132.314 30.6751 130.149 29.5893C127.984 28.5036 125.55 28.0701 123.144 28.3416C120.737 28.6131 118.461 29.5778 116.593 31.1185V31.1185Z" fill="#FAFAFA"/>
    </g>
    <defs>
        <clipPath id="clip0_89_22">
            <path d="M0 20C0 8.9543 8.95431 0 20 0H130C141.046 0 150 8.95431 150 20V130C150 141.046 141.046 150 130 150H20C8.9543 150 0 141.046 0 130V20Z" fill="white"/>
        </clipPath>
    </defs>
</svg>
