<svg width="150" height="150" viewBox="0 0 150 150" fill="none" xmlns="http://www.w3.org/2000/svg">
    <g clip-path="url(#clip0_87_16)">
        <path d="M0 20C0 8.9543 8.95431 0 20 0H130C141.046 0 150 8.95431 150 20V130C150 141.046 141.046 150 130 150H20C8.9543 150 0 141.046 0 130V20Z" fill="#005691"/>
        <path fill-rule="evenodd" clip-rule="evenodd" d="M58.9312 56.0563H82.1437V67.6188C85.4875 60.9688 94.0625 54.9938 106.944 54.9938C131.638 54.9938 137.5 68.2313 137.5 92.5188V137.5H112.5V98.05C112.5 84.2187 109.156 76.4188 100.644 76.4188C88.8375 76.4188 83.9312 84.825 83.9312 98.0438V137.5H58.9312V56.0563V56.0563ZM16.0625 136.437H41.0625V54.9938H16.0625V136.437V136.437ZM44.6438 28.4375C44.6447 30.533 44.2291 32.6077 43.4212 34.5412C42.6132 36.4746 41.4291 38.2282 39.9375 39.7C36.915 42.7039 32.8238 44.3853 28.5625 44.375C24.3087 44.3721 20.2269 42.695 17.2 39.7063C15.7138 38.2295 14.5337 36.4739 13.7271 34.5402C12.9206 32.6065 12.5036 30.5327 12.5 28.4375C12.5 24.2063 14.1875 20.1563 17.2063 17.1688C20.2305 14.176 24.314 12.4981 28.5688 12.5C32.8313 12.5 36.9187 14.1813 39.9375 17.1688C42.95 20.1563 44.6438 24.2063 44.6438 28.4375Z" fill="#FAFAFA"/>
    </g>
    <defs>
        <clipPath id="clip0_87_16">
            <path d="M0 20C0 8.9543 8.95431 0 20 0H130C141.046 0 150 8.95431 150 20V130C150 141.046 141.046 150 130 150H20C8.9543 150 0 141.046 0 130V20Z" fill="white"/>
        </clipPath>
    </defs>
</svg>
