<svg width="150" height="150" viewBox="0 0 150 150" fill="none" xmlns="http://www.w3.org/2000/svg">
    <g clip-path="url(#clip0_87_19)">
        <path d="M0 20C0 8.9543 8.95431 0 20 0H130C141.046 0 150 8.95431 150 20V130C150 141.046 141.046 150 130 150H20C8.9543 150 0 141.046 0 130V20Z" fill="#005691"/>
        <path d="M141 30.5294C136.326 32.8971 131.287 34.4529 126.066 35.1971C131.408 31.6118 135.536 25.9294 137.479 19.0971C132.44 22.4794 126.855 24.8471 120.967 26.2C116.171 20.3824 109.432 17 101.783 17C87.5167 17 75.8609 29.9882 75.8609 46.0206C75.8609 48.3206 76.1037 50.5529 76.5287 52.65C54.9168 51.4324 35.6726 39.8647 22.8633 22.3441C20.6171 26.6059 19.3423 31.6118 19.3423 36.8882C19.3423 46.9676 23.8953 55.8971 30.9374 60.9706C26.6272 60.9706 22.6205 59.6176 19.0994 57.5882V57.7912C19.0994 71.8618 28.0841 83.6323 39.9828 86.2706C36.1626 87.4355 32.1521 87.5976 28.2663 86.7441C29.9151 92.5109 33.1443 97.5569 37.5 101.173C41.8556 104.789 47.1186 106.793 52.5492 106.903C43.3437 115.024 31.933 119.413 20.1922 119.35C18.1281 119.35 16.0641 119.215 14 118.944C25.5344 127.197 39.2543 132 53.9455 132C101.783 132 128.069 87.7588 128.069 49.4029C128.069 48.1176 128.069 46.9 128.009 45.6147C133.108 41.5559 137.479 36.4147 141 30.5294V30.5294Z" fill="#FAFAFA"/>
    </g>
    <defs>
        <clipPath id="clip0_87_19">
            <path d="M0 20C0 8.9543 8.95431 0 20 0H130C141.046 0 150 8.95431 150 20V130C150 141.046 141.046 150 130 150H20C8.9543 150 0 141.046 0 130V20Z" fill="white"/>
        </clipPath>
    </defs>
</svg>
